<svg width="18" height="19" viewBox="0 0 18 19" fill="none" xmlns="http://www.w3.org/2000/svg">
<g id="Vector">
<path d="M1.55309 0.450545C1.74148 0.419973 1.93308 0.481827 2.06804 0.616784L2.83569 1.38444L3.60335 0.616784C3.83522 0.38491 4.21116 0.38491 4.44304 0.616784L5.21069 1.38444L5.97835 0.616784C6.21022 0.38491 6.58616 0.38491 6.81804 0.616784L7.58569 1.38444L8.35335 0.616784C8.58522 0.38491 8.96116 0.38491 9.19304 0.616784L9.96069 1.38444L10.7283 0.616784C10.9602 0.38491 11.3362 0.38491 11.568 0.616784L12.3357 1.38444L13.1033 0.616784C13.3352 0.38491 13.7112 0.38491 13.943 0.616784L14.7107 1.38444L15.4783 0.616784C15.6133 0.481827 15.8049 0.419973 15.9933 0.450545C16.1817 0.481117 16.3439 0.600387 16.4293 0.771095L17.023 1.9586C17.0642 2.04104 17.0857 2.13195 17.0857 2.22413V16.4741C17.0857 16.5663 17.0642 16.6572 17.023 16.7397L16.4293 17.9272C16.3439 18.0979 16.1817 18.2171 15.9933 18.2477C15.8049 18.2783 15.6133 18.2164 15.4783 18.0815L14.7107 17.3138L13.943 18.0815C13.7112 18.3133 13.3352 18.3133 13.1033 18.0815L12.3357 17.3138L11.568 18.0815C11.3362 18.3133 10.9602 18.3133 10.7283 18.0815L9.96069 17.3138L9.19304 18.0815C8.96116 18.3133 8.58522 18.3133 8.35335 18.0815L7.58569 17.3138L6.81804 18.0815C6.58616 18.3133 6.21022 18.3133 5.97835 18.0815L5.21069 17.3138L4.44304 18.0815C4.21116 18.3133 3.83522 18.3133 3.60335 18.0815L2.83569 17.3138L2.06804 18.0815C1.93308 18.2164 1.74148 18.2783 1.55309 18.2477C1.36469 18.2171 1.20248 18.0979 1.11713 17.9272L0.523377 16.7397C0.482155 16.6572 0.460693 16.5663 0.460693 16.4741V2.22413C0.460693 2.13195 0.482155 2.04104 0.523377 1.9586L1.11713 0.771095C1.20248 0.600387 1.36469 0.481117 1.55309 0.450545ZM1.81085 2.03898L1.64819 2.36429V16.334L1.81085 16.6593L2.41585 16.0543C2.64772 15.8224 3.02366 15.8224 3.25554 16.0543L4.02319 16.8219L4.79085 16.0543C5.02272 15.8224 5.39866 15.8224 5.63054 16.0543L6.39819 16.8219L7.16585 16.0543C7.39772 15.8224 7.77366 15.8224 8.00554 16.0543L8.77319 16.8219L9.54085 16.0543C9.77272 15.8224 10.1487 15.8224 10.3805 16.0543L11.1482 16.8219L11.9158 16.0543C12.1477 15.8224 12.5237 15.8224 12.7555 16.0543L13.5232 16.8219L14.2908 16.0543C14.5227 15.8224 14.8987 15.8224 15.1305 16.0543L15.7355 16.6593L15.8982 16.334V2.36429L15.7355 2.03898L15.1305 2.64397C14.8987 2.87585 14.5227 2.87585 14.2908 2.64397L13.5232 1.87632L12.7555 2.64397C12.5237 2.87585 12.1477 2.87585 11.9158 2.64397L11.1482 1.87632L10.3805 2.64397C10.1487 2.87585 9.77272 2.87585 9.54085 2.64397L8.77319 1.87632L8.00554 2.64397C7.77366 2.87585 7.39772 2.87585 7.16585 2.64397L6.39819 1.87632L5.63054 2.64397C5.39866 2.87585 5.02272 2.87585 4.79085 2.64397L4.02319 1.87632L3.25554 2.64397C3.02366 2.87585 2.64772 2.87585 2.41585 2.64397L1.81085 2.03898Z" fill="#22272F"/>
<path d="M2.83569 5.19288C2.83569 4.86496 3.10152 4.59913 3.42944 4.59913H10.5544C10.8824 4.59913 11.1482 4.86496 11.1482 5.19288C11.1482 5.5208 10.8824 5.78663 10.5544 5.78663H3.42944C3.10152 5.78663 2.83569 5.5208 2.83569 5.19288ZM2.83569 7.56788C2.83569 7.23996 3.10152 6.97413 3.42944 6.97413H10.5544C10.8824 6.97413 11.1482 7.23996 11.1482 7.56788C11.1482 7.8958 10.8824 8.16163 10.5544 8.16163H3.42944C3.10152 8.16163 2.83569 7.8958 2.83569 7.56788ZM2.83569 9.94288C2.83569 9.61496 3.10152 9.34913 3.42944 9.34913H10.5544C10.8824 9.34913 11.1482 9.61496 11.1482 9.94288C11.1482 10.2708 10.8824 10.5366 10.5544 10.5366H3.42944C3.10152 10.5366 2.83569 10.2708 2.83569 9.94288ZM2.83569 12.3179C2.83569 11.99 3.10152 11.7241 3.42944 11.7241H10.5544C10.8824 11.7241 11.1482 11.99 11.1482 12.3179C11.1482 12.6458 10.8824 12.9116 10.5544 12.9116H3.42944C3.10152 12.9116 2.83569 12.6458 2.83569 12.3179Z" fill="#22272F"/>
<path d="M12.3357 5.19288C12.3357 4.86496 12.6015 4.59913 12.9294 4.59913H14.1169C14.4449 4.59913 14.7107 4.86496 14.7107 5.19288C14.7107 5.5208 14.4449 5.78663 14.1169 5.78663H12.9294C12.6015 5.78663 12.3357 5.5208 12.3357 5.19288ZM12.3357 7.56788C12.3357 7.23996 12.6015 6.97413 12.9294 6.97413H14.1169C14.4449 6.97413 14.7107 7.23996 14.7107 7.56788C14.7107 7.8958 14.4449 8.16163 14.1169 8.16163H12.9294C12.6015 8.16163 12.3357 7.8958 12.3357 7.56788ZM12.3357 9.94288C12.3357 9.61496 12.6015 9.34913 12.9294 9.34913H14.1169C14.4449 9.34913 14.7107 9.61496 14.7107 9.94288C14.7107 10.2708 14.4449 10.5366 14.1169 10.5366H12.9294C12.6015 10.5366 12.3357 10.2708 12.3357 9.94288ZM12.3357 12.3179C12.3357 11.99 12.6015 11.7241 12.9294 11.7241H14.1169C14.4449 11.7241 14.7107 11.99 14.7107 12.3179C14.7107 12.6458 14.4449 12.9116 14.1169 12.9116H12.9294C12.6015 12.9116 12.3357 12.6458 12.3357 12.3179Z" fill="#22272F"/>
</g>
</svg>
