<svg width="19" height="20" viewBox="0 0 19 20" fill="none" xmlns="http://www.w3.org/2000/svg">
<path id="Vector 919" d="M13.9447 18.9402C8.90722 18.9402 1.04541 18.9402 1.04541 18.9402V1.48412H8.47653C9.00327 1.47869 9.66604 1.53559 10.3858 1.68528M16.5386 7.30281V11.6493M16.5386 7.30281C15.7636 3.68652 12.7636 2.17973 10.3858 1.68528M16.5386 7.30281H10.3858V1.68528M14.7158 17.7484C15.4277 18.2138 16.5386 18.9402 16.5386 18.9402M16.5386 18.9402L18.5015 17.7484M16.5386 18.9402V13.5421M4.2426 11.3184V14.4284L7.49506 16.7373M7.49506 16.7373V13.0619M7.49506 16.7373L10.8395 14.4284V11.3184M7.62678 11.8158L10.8036 10.0568C10.8196 10.0479 10.8201 10.0251 10.8045 10.0155L7.74938 8.15138C7.74199 8.14687 7.73274 8.14671 7.7252 8.15096L4.41714 10.0159C4.40085 10.0251 4.40095 10.0486 4.41733 10.0576L7.60367 11.8159C7.61086 11.8198 7.61959 11.8198 7.62678 11.8158Z" stroke="#22272F" stroke-width="1.14471"/>
</svg>
