<svg width="19" height="19" viewBox="0 0 19 19" fill="none" xmlns="http://www.w3.org/2000/svg">
<path id="Vector 921" d="M1.64567 17.522H1.1333V2.69463M10.1695 17.522H18.4138V2.69463M5.79446 15.4885V17.8098M5.79446 15.4885H4.17657M5.79446 15.4885V14.8202M5.79446 17.8098H9.20609V14.8202H7.50027M5.79446 17.8098H2.55869V15.4885H3.05109M3.05109 15.4885V12.8506H4.42277M3.05109 15.4885H4.17657M4.42277 12.8506H5.79446V14.8202M4.42277 12.8506V13.5892M4.17657 15.4885V16.403M5.79446 14.8202H7.50027M7.50027 14.8202V15.4885M10.9295 13.9058H16.3811M12.0198 15.1016H14.2004M14.7983 15.1016H16.3811M10.9295 16.1919H16.3811M10.3507 12.4638H9.20609V10.0721H10.3507V10.6761M10.3507 12.4638H11.3774M10.3507 12.4638V10.6761M15.8815 12.4638H17.0075V8.92083H15.8815V10.0721M15.8815 12.4638V10.0721M15.8815 12.4638H14.7886M15.8815 10.0721H14.7983M14.7983 10.0721V7.82794H13.6957V8.126M14.7983 10.0721L14.7886 12.4638M13.6957 12.4638H14.7886M13.6957 12.4638V8.126M13.6957 12.4638H12.5034M13.6957 8.126H12.5034V8.92083M12.5034 12.4638V8.92083M12.5034 12.4638H11.3774M12.5034 8.92083H11.3774V10.6923M11.3774 12.4638V10.6923M10.3507 10.6761L11.3774 10.6923M9.20609 7.72075V8.39095M10.3507 7.72075V8.39095M1.1333 2.69463V0.614014H16.1133M1.1333 2.69463H16.1133M18.4138 2.69463V0.614014H16.1133M18.4138 2.69463H16.1133M16.1133 0.614014V2.69463M2.00497 1.63485H4.68753M4.42277 3.92V5.24473H3.67129L4.24549 6.47242M4.24549 6.47242C3.61523 6.64339 2.52241 7.24649 2.52241 8.92083C2.52241 10.2484 3.46746 11.4795 4.98047 11.4795C6.1914 11.4795 7.50704 10.6923 7.50704 8.92083C7.50704 7.82794 6.85849 6.78324 5.75764 6.47242M4.24549 6.47242C4.87575 6.30145 5.56852 6.3997 5.75764 6.47242M5.75764 6.47242L6.35837 5.24473H5.58789V3.92M5.97136 7.82794H5.05246M4.02923 10.0721H5.05246M5.05246 7.82794H4.68753C4.54019 7.80862 4.24549 7.89418 4.24549 8.39095C4.22068 8.50105 4.28655 8.76117 4.74853 8.92083C5.0849 8.89618 5.75764 8.95224 5.75764 9.37369C5.80287 9.52524 5.78797 9.87709 5.36652 10.0721H5.05246M5.05246 7.82794V7.24618M5.05246 10.0721V10.6198M9.48984 5.0028C9.49321 4.709 9.49086 4.13596 8.80588 4.13596C8.46109 4.13596 8.0715 4.12965 8.0715 4.90565V5.76414C8.0715 6.31869 8.17641 6.47242 8.80588 6.47242C9.48984 6.47242 9.48984 6.06691 9.48984 5.56443M14.5756 4.6729C14.4613 4.48234 14.3608 3.96145 13.5777 4.10124C13.4749 4.11959 13.3818 4.17659 13.3132 4.25536C13.1954 4.39062 13.1269 4.54999 13.1269 5.40234C13.1269 6.30725 13.326 6.47242 13.7854 6.47242C14.2447 6.47242 14.5756 6.33189 14.4946 5.56443H13.9576M17.2907 4.13596H15.8815C15.7805 4.13934 15.6394 4.19259 15.6394 4.73369C15.6394 4.97441 15.7204 5.30102 16.5309 5.30102C17.0075 5.30102 17.0075 5.44578 17.0075 5.87849C17.0075 6.3112 16.9256 6.47242 15.3253 6.4053M11.2932 4.13596C10.8724 4.13596 10.5536 4.55041 10.5536 5.24473C10.5536 5.89637 10.6133 6.39934 11.2932 6.39934C11.973 6.39934 12.053 5.71235 12.053 5.24473C12.053 4.7771 11.973 4.13596 11.2932 4.13596Z" stroke="#22272F" stroke-width="0.704243"/>
</svg>
