<svg width="19" height="19" viewBox="0 0 19 19" fill="none" xmlns="http://www.w3.org/2000/svg">
<path id="Vector" d="M1.27344 9.21185L3.16233 7.32296M3.16233 7.32296L9.77344 0.711853L16.3845 7.32296M3.16233 7.32296V16.7674C3.16233 17.0179 3.26183 17.2581 3.43895 17.4352C3.61607 17.6123 3.85629 17.7119 4.10677 17.7119H6.9401M16.3845 7.32296L18.2734 9.21185M16.3845 7.32296V16.7674C16.3845 17.0179 16.285 17.2581 16.1079 17.4352C15.9308 17.6123 15.6906 17.7119 15.4401 17.7119H12.6068M6.9401 17.7119C7.19059 17.7119 7.43081 17.6123 7.60793 17.4352C7.78504 17.2581 7.88455 17.0179 7.88455 16.7674V12.9896C7.88455 12.7391 7.98405 12.4989 8.16117 12.3218C8.33829 12.1447 8.57851 12.0452 8.82899 12.0452H10.7179C10.9684 12.0452 11.2086 12.1447 11.3857 12.3218C11.5628 12.4989 11.6623 12.7391 11.6623 12.9896V16.7674C11.6623 17.0179 11.7618 17.2581 11.9389 17.4352C12.1161 17.6123 12.3563 17.7119 12.6068 17.7119M6.9401 17.7119H12.6068" stroke="#22272F" stroke-width="1.4" stroke-linecap="round" stroke-linejoin="round"/>
</svg>
