<svg width="23" height="21" viewBox="0 0 23 21" fill="none" xmlns="http://www.w3.org/2000/svg">
<path id="Vector 929" d="M6.53144 10.2088V4.91414C6.53144 4.36185 6.97915 3.91413 7.53144 3.91413H9.67887M6.53144 10.2088H8.12158M6.53144 10.2088H5.03887M17.4646 10.2088V13.3232M17.4646 10.2088V7.06147M17.4646 10.2088H15.1454M12.8263 3.91413V10.2088M12.8263 3.91413H13.75M12.8263 3.91413H9.67887M12.8263 10.2088V16.5037M12.8263 10.2088H10.4739M12.8263 10.2088H15.1454M1.7607 16.5037V10.9088C1.7607 10.5222 2.0741 10.2088 2.4607 10.2088H5.03887M1.7607 16.5037H0.302734M1.7607 16.5037H2.51404M8.12158 16.5037V10.2088M8.12158 16.5037H12.8263M8.12158 16.5037H4.35028M8.12158 10.2088H10.4739M12.8263 16.5037H16.0066M16.0066 16.5037C16.0066 15.2444 15.7154 13.3232 17.4646 13.3232M16.0066 16.5037H16.8826M17.4646 13.3232C19.2137 13.3232 19.1872 14.5549 19.1872 16.5037M19.1872 16.5037H20.5787M19.1872 16.5037H18.5812M17.4646 7.06147V4.91414C17.4646 4.36185 17.0169 3.91413 16.4646 3.91413H15.6073M17.4646 7.06147L21.7562 2.2561C22.3317 1.61168 21.8742 0.589889 21.0102 0.589994L17.1847 0.59046C16.9919 0.590484 16.8077 0.670032 16.6754 0.810338L13.75 3.91413M13.75 3.91413H15.6073M2.51404 16.5037C2.06073 16.8569 1.58223 17.2822 1.58223 18.1861C1.58223 19.0899 2.37679 19.834 3.31014 19.834C4.2435 19.834 4.87701 19.3952 5.03887 18.4109C5.20073 17.4267 4.35028 16.5037 4.35028 16.5037M2.51404 16.5037H4.35028M16.8826 16.5037C16.8826 16.5037 15.7428 17.2146 16.0066 18.5582C16.16 19.3389 16.8314 19.834 17.5721 19.834C18.3127 19.834 18.9429 19.5181 19.1872 18.5582C19.4314 17.5983 18.5812 16.5037 18.5812 16.5037M16.8826 16.5037H18.5812M9.67887 3.91413V5.80698M15.6073 3.91413V5.80698M5.03887 10.2088V11.9112M10.4739 10.2088V11.9112M15.1454 10.2088V11.9112" stroke="#22272F" stroke-width="1.1"/>
</svg>
