<svg width="22" height="22" viewBox="0 0 22 22" fill="none" xmlns="http://www.w3.org/2000/svg">
<path id="Vector 920" d="M1.05344 6.11195L9.48592 1.31018L12.4606 2.99851M1.05344 6.11195L0.914307 16.0966L9.48592 21.0745M1.05344 6.11195L3.99222 7.83852M17.9462 6.11195L9.48592 11.0661M17.9462 6.11195V12.5905M17.9462 6.11195L14.8582 4.35929M9.48592 11.0661V21.0745M9.48592 11.0661L6.53464 9.33223M9.48592 21.0745L12.7076 19.1777M17.9462 12.5905C18.9878 12.997 20.9014 14.3287 20.6011 17.4224C20.462 18.8552 18.9942 21.4641 15.4881 21.0745C14.6842 20.8466 13.4974 20.2393 12.7076 19.1777M17.9462 12.5905C14.3475 11.2572 12.4892 14.004 12.0099 15.5441C11.6688 17.0981 12.0509 18.295 12.7076 19.1777M14.2012 16.0966L15.3142 17.8398L18.4446 15.2659M4.16708 7.94126L12.4606 2.99851M4.16708 7.94126L3.99222 7.83852M4.16708 7.94126L6.34034 9.21808M12.4606 2.99851L14.8582 4.35929M14.8582 4.35929L6.53464 9.33223M6.53464 9.33223L6.34034 9.21808M3.99222 7.83852V12.1355L6.34034 13.492V9.21808" stroke="#22272F" stroke-width="1.00361"/>
</svg>
