<svg width="19" height="19" viewBox="0 0 19 19" fill="none" xmlns="http://www.w3.org/2000/svg">
<g id="Group 1000005265">
<path id="Vector" d="M8.85284 0.711914C7.25715 0.890241 5.74424 1.5155 4.48824 2.51574C3.23223 3.51597 2.28418 4.85053 1.75319 6.36581C1.2222 7.88109 1.12985 9.51551 1.48678 11.081C1.84371 12.6464 2.63541 14.0792 3.77076 15.2146C4.9061 16.3499 6.33895 17.1416 7.9044 17.4986C9.46985 17.8555 11.1043 17.7632 12.6195 17.2322C14.1348 16.7012 15.4694 15.7531 16.4696 14.4971C17.4698 13.2411 18.0951 11.7282 18.2734 10.1325H8.85284V0.711914Z" stroke="#22272F" stroke-width="1.3" stroke-linecap="round" stroke-linejoin="round"/>
<path id="Vector_2" d="M17.8412 6.34412H12.6426V1.14551C13.8412 1.57076 14.9299 2.25811 15.8293 3.15745C16.7286 4.05679 17.4159 5.14546 17.8412 6.34412Z" stroke="#22272F" stroke-width="1.3" stroke-linecap="round" stroke-linejoin="round"/>
</g>
</svg>
