<svg width="28" height="22" viewBox="0 0 28 22" fill="none" xmlns="http://www.w3.org/2000/svg">
<path id="Vector 917" d="M18.1704 16.1342L18.8655 13.7326M18.1704 16.1342C17.4182 15.6039 16.9849 15.3961 16.0004 15.3961C14.0869 15.4756 13.2732 17.1304 13.2602 18.2499M18.1704 16.1342C18.1704 16.1342 18.7085 16.8118 18.8246 17.2647C18.9407 17.7176 18.9407 17.9986 18.9407 17.9986M13.2602 18.2499H7.23726M13.2602 18.2499C13.2426 19.7643 14.4659 21.1315 16.0002 21.1315C17.609 21.1315 18.0918 20.532 18.5229 19.8689M7.23726 18.2499C7.30436 17.3703 6.54235 15.4307 4.60151 15.4307C3.40715 15.4307 3.05313 15.4819 2.33831 16.1147M7.23726 18.2499C7.23726 20.3431 5.50429 21.1281 4.37158 21.1281C2.33831 21.1281 1.53102 19.2807 1.53102 18.2499C1.53102 17.7477 1.62348 16.7476 2.33831 16.1147M2.33831 16.1147L0.675126 10.2981C0.656859 10.2342 0.704827 10.1706 0.771273 10.1706H2.60398M2.60398 10.1706C3.55749 8.77009 5.92962 6.37243 7.92164 6.37243C10.0487 6.37243 11.0878 7.63134 11.4423 8.05909M2.60398 10.1706H9.3519M11.4423 8.05909L9.3519 10.1706M11.4423 8.05909L13.2635 6.88554M9.3519 10.1706H18.667M13.2635 6.88554L14.1832 3.18151M13.2635 6.88554C14.3411 6.63512 16.3752 6.69012 17.6934 8.24375M14.1832 3.18151H25.7997M14.1832 3.18151C14.1832 3.18151 12.9459 3.18151 12.9459 2.15513C12.9459 1.3082 13.7224 1.29218 13.7224 1.29218L26.2362 1.2922C26.6396 1.36555 26.8425 1.53069 26.8425 2.15513C26.8425 3.18151 26.1053 3.10832 25.7997 3.18151M25.7997 3.18151C26.8632 7.72997 27.2635 14.4091 25.3684 17.9986M25.3684 17.9986H18.9407M25.3684 17.9986C26.7639 17.9986 26.9084 18.3508 26.9084 18.9211C26.9084 19.4914 26.5466 19.8689 25.6349 19.8689C24.8991 19.8689 20.6104 19.8445 18.5229 19.8689M18.9407 17.9986C18.9407 18.8465 18.9052 19.281 18.5229 19.8689M18.667 10.1706H19.7359C19.8021 10.1706 19.8501 10.2339 19.8321 10.2977L18.8655 13.7326M18.667 10.1706C18.4459 9.35847 18.1045 8.72824 17.6934 8.24375M17.6934 8.24375C18.3113 7.66908 19.5686 6.90823 21.4175 7.72997C23.7581 8.77025 23.1008 11.4824 22.7675 12.0489C22.0975 13.1878 21.0445 14.2343 18.8655 13.7326" stroke="#22272F" stroke-width="1.2"/>
</svg>
