<svg xmlns="http://www.w3.org/2000/svg" width="19" height="20" viewBox="0 0 37 39" fill="none">
  <path d="M2.81777 0.0547629C3.22418 -0.011189 3.63752 0.122247 3.92866 0.413384L5.5847 2.06942L7.24074 0.413384C7.74095 -0.0868302 8.55196 -0.0868302 9.05218 0.413384L10.7082 2.06942L12.3643 0.413384C12.8645 -0.0868302 13.6755 -0.0868302 14.1757 0.413384L15.8317 2.06942L17.4878 0.413384C17.988 -0.0868302 18.799 -0.0868302 19.2992 0.413384L20.9553 2.06942L22.6113 0.413384C23.1115 -0.0868302 23.9225 -0.0868302 24.4227 0.413384L26.0788 2.06942L27.7348 0.413384C28.235 -0.0868302 29.046 -0.0868302 29.5463 0.413384L31.2023 2.06942L32.8583 0.413384C33.1495 0.122247 33.5628 -0.011189 33.9692 0.0547629C34.3756 0.120715 34.7256 0.378013 34.9097 0.746276L36.1906 3.30804C36.2795 3.48589 36.3258 3.68201 36.3258 3.88086V34.622C36.3258 34.8208 36.2795 35.0169 36.1906 35.1948L34.9097 37.7566C34.7256 38.1248 34.3756 38.3821 33.9692 38.4481C33.5628 38.514 33.1495 38.3806 32.8583 38.0894L31.2023 36.4334L29.5463 38.0894C29.046 38.5897 28.235 38.5897 27.7348 38.0894L26.0788 36.4334L24.4227 38.0894C23.9225 38.5897 23.1115 38.5897 22.6113 38.0894L20.9553 36.4334L19.2992 38.0894C18.799 38.5897 17.988 38.5897 17.4878 38.0894L15.8317 36.4334L14.1757 38.0894C13.6755 38.5897 12.8645 38.5897 12.3643 38.0894L10.7082 36.4334L9.05218 38.0894C8.55196 38.5897 7.74095 38.5897 7.24074 38.0894L5.5847 36.4334L3.92866 38.0894C3.63752 38.3806 3.22418 38.514 2.81777 38.4481C2.41135 38.3821 2.06142 38.1248 1.87729 37.7566L0.596408 35.1948C0.507479 35.0169 0.461182 34.8208 0.461182 34.622V3.88086C0.461182 3.68201 0.507479 3.48589 0.596408 3.30804L1.87729 0.746276C2.06142 0.378013 2.41135 0.120715 2.81777 0.0547629ZM3.37384 3.48144L3.02294 4.18324V34.3196L3.37384 35.0214L4.67898 33.7162C5.1792 33.216 5.9902 33.216 6.49042 33.7162L8.14646 35.3723L9.8025 33.7162C10.3027 33.216 11.1137 33.216 11.6139 33.7162L13.27 35.3723L14.926 33.7162C15.4262 33.216 16.2372 33.216 16.7375 33.7162L18.3935 35.3723L20.0495 33.7162C20.5497 33.216 21.3608 33.216 21.861 33.7162L23.517 35.3723L25.1731 33.7162C25.6733 33.216 26.4843 33.216 26.9845 33.7162L28.6405 35.3723L30.2966 33.7162C30.7968 33.216 31.6078 33.216 32.108 33.7162L33.4132 35.0214L33.764 34.3196V4.18323L33.4132 3.48144L32.108 4.78658C31.6078 5.2868 30.7968 5.2868 30.2966 4.78658L28.6405 3.13054L26.9845 4.78658C26.4843 5.2868 25.6733 5.2868 25.1731 4.78658L23.517 3.13054L21.861 4.78658C21.3608 5.2868 20.5497 5.2868 20.0495 4.78658L18.3935 3.13054L16.7375 4.78658C16.2372 5.2868 15.4262 5.2868 14.926 4.78658L13.27 3.13054L11.6139 4.78658C11.1137 5.2868 10.3027 5.2868 9.8025 4.78658L8.14646 3.13054L6.49042 4.78658C5.9902 5.2868 5.1792 5.2868 4.67898 4.78658L3.37384 3.48144Z" fill="#22272F"/>
  <path d="M5.5847 10.2853C5.5847 9.57785 6.15817 9.00438 6.86558 9.00438H22.2361C22.9435 9.00438 23.517 9.57785 23.517 10.2853C23.517 10.9927 22.9435 11.5661 22.2361 11.5661H6.86558C6.15817 11.5661 5.5847 10.9927 5.5847 10.2853ZM5.5847 15.4088C5.5847 14.7014 6.15817 14.1279 6.86558 14.1279H22.2361C22.9435 14.1279 23.517 14.7014 23.517 15.4088C23.517 16.1162 22.9435 16.6897 22.2361 16.6897H6.86558C6.15817 16.6897 5.5847 16.1162 5.5847 15.4088ZM5.5847 20.5323C5.5847 19.8249 6.15817 19.2514 6.86558 19.2514H22.2361C22.9435 19.2514 23.517 19.8249 23.517 20.5323C23.517 21.2397 22.9435 21.8132 22.2361 21.8132H6.86558C6.15817 21.8132 5.5847 21.2397 5.5847 20.5323ZM5.5847 25.6558C5.5847 24.9484 6.15817 24.3749 6.86558 24.3749H22.2361C22.9435 24.3749 23.517 24.9484 23.517 25.6558C23.517 26.3632 22.9435 26.9367 22.2361 26.9367H6.86558C6.15817 26.9367 5.5847 26.3632 5.5847 25.6558Z" fill="#22272F"/>
  <path d="M26.0788 10.2853C26.0788 9.57785 26.6522 9.00438 27.3597 9.00438H29.9214C30.6288 9.00438 31.2023 9.57785 31.2023 10.2853C31.2023 10.9927 30.6288 11.5661 29.9214 11.5661H27.3597C26.6522 11.5661 26.0788 10.9927 26.0788 10.2853ZM26.0788 15.4088C26.0788 14.7014 26.6522 14.1279 27.3597 14.1279H29.9214C30.6288 14.1279 31.2023 14.7014 31.2023 15.4088C31.2023 16.1162 30.6288 16.6897 29.9214 16.6897H27.3597C26.6522 16.6897 26.0788 16.1162 26.0788 15.4088ZM26.0788 20.5323C26.0788 19.8249 26.6522 19.2514 27.3597 19.2514H29.9214C30.6288 19.2514 31.2023 19.8249 31.2023 20.5323C31.2023 21.2397 30.6288 21.8132 29.9214 21.8132H27.3597C26.6522 21.8132 26.0788 21.2397 26.0788 20.5323ZM26.0788 25.6558C26.0788 24.9484 26.6522 24.3749 27.3597 24.3749H29.9214C30.6288 24.3749 31.2023 24.9484 31.2023 25.6558C31.2023 26.3632 30.6288 26.9367 29.9214 26.9367H27.3597C26.6522 26.9367 26.0788 26.3632 26.0788 25.6558Z" fill="#22272F"/>
</svg>