<svg width="21" height="20" viewBox="0 0 21 20" fill="none" xmlns="http://www.w3.org/2000/svg">
<path id="Vector 922" d="M2.28146 17.6686H1.53813C1.42768 17.6686 1.33813 17.5791 1.33813 17.4686V16.6212C1.33813 16.5108 1.42768 16.4212 1.53813 16.4212H2.98013M2.28146 17.6686V18.821C2.28146 18.9314 2.371 19.021 2.48146 19.021H3.38288C3.49334 19.021 3.58288 18.9314 3.58288 18.821V17.6686M2.28146 17.6686H3.58288M3.58288 17.6686H18.0287M18.0287 17.6686V18.7776C18.0287 18.888 18.1182 18.9776 18.2287 18.9776H19.1735C19.2839 18.9776 19.3735 18.888 19.3735 18.7776V17.6686M18.0287 17.6686H19.3735M19.3735 17.6686H20.0087C20.1192 17.6686 20.2087 17.5791 20.2087 17.4686V16.6212C20.2087 16.5108 20.1192 16.4212 20.0087 16.4212H18.5803M2.98013 16.4212V11.4087C2.98013 11.3535 3.0249 11.3087 3.08013 11.3087H4.60515M2.98013 16.4212H8.21629M18.5803 16.4212V11.4087C18.5803 11.3535 18.5355 11.3087 18.4803 11.3087H17.0848M18.5803 16.4212H13.3983M8.21629 11.3087V16.4212M8.21629 11.3087H6.51905M8.21629 11.3087H9.8052M8.21629 16.4212H13.3983M13.3983 11.3087V16.4212M13.3983 11.3087H11.7913M13.3983 11.3087H15.0773M4.60515 11.3087V13.0782H6.51905V11.3087M4.60515 11.3087H5.5621M6.51905 11.3087H5.5621M9.8052 11.3087V13.0782H11.7913V11.3087M9.8052 11.3087H10.8357M11.7913 11.3087H10.8357M15.0773 11.3087V13.0782H17.0848V11.3087M15.0773 11.3087H16.0018M17.0848 11.3087H16.0018M5.5621 11.3087V6.14934C5.5621 6.09411 5.60687 6.04934 5.6621 6.04934H7.20247M10.8357 6.04934V11.3087M10.8357 6.04934H9.16829M10.8357 6.04934H12.4697M7.20247 6.04934V7.87154H9.16829V6.04934M7.20247 6.04934H8.18538M9.16829 6.04934H8.18538M8.18538 6.04934L8.21571 0.862416C8.21603 0.807416 8.26071 0.763 8.31571 0.763H9.8052M13.3983 6.04934V0.863C13.3983 0.807772 13.3535 0.763 13.2983 0.763H11.7998M13.3983 6.04934H12.4697M13.3983 6.04934H14.4357M16.0018 11.3087V6.14934C16.0018 6.09411 15.957 6.04934 15.9018 6.04934H14.4357M9.8052 0.763V2.62253H11.7998V0.763M9.8052 0.763H11.7998M12.4697 6.04934V7.87154H14.4357V6.04934" stroke="#22272F" stroke-width="0.9"/>
</svg>
