<svg width="20" height="20" viewBox="0 0 20 20" fill="none" xmlns="http://www.w3.org/2000/svg">
<g id="Group 1000005293">
<path id="Line 107 (Stroke)" fill-rule="evenodd" clip-rule="evenodd" d="M0.0469005 18.9813L0.0469013 1.01256C0.0469013 0.774718 0.23971 0.581909 0.477552 0.581909L-nan -nanL0.477552 0.581909C0.715394 0.581909 0.908203 0.774718 0.908203 1.01256L0.908202 18.9813L0.0469005 18.9813Z" fill="#22272F"/>
<path id="Line 108 (Stroke)" fill-rule="evenodd" clip-rule="evenodd" d="M0.0464439 18.9806L19.0701 18.9806C19.3079 18.9806 19.5007 19.1734 19.5007 19.4113L-nan -nanL19.5007 19.4113C19.5007 19.6491 19.3079 19.8419 19.0701 19.8419L0.0464439 19.8419V18.9806Z" fill="#22272F"/>
<path id="Line 109 (Stroke)" fill-rule="evenodd" clip-rule="evenodd" d="M16.3227 3.0192C16.5591 3.04516 16.7297 3.25786 16.7038 3.49428L16.2808 5.91149C16.2548 6.14791 16.0421 6.31852 15.8057 6.29257C15.5693 6.26661 15.3987 6.05391 15.4246 5.81749L15.7363 4.41412C15.3997 4.67212 14.9741 4.99353 14.4909 5.34775C13.2888 6.22894 11.7198 7.32091 10.2751 8.1438C8.54062 9.13175 6.60491 10.0204 5.10773 10.6606C4.35808 10.9812 3.71614 11.2403 3.26126 11.4195C3.03379 11.5091 2.85299 11.5788 2.72879 11.6261C2.66669 11.6498 2.61873 11.6679 2.58614 11.6801L2.54895 11.694L2.53606 11.6988C2.53606 11.6988 2.53576 11.6989 2.38622 11.2951L2.23667 10.8912L2.24806 10.887L2.28336 10.8738C2.31467 10.862 2.36131 10.8444 2.42204 10.8213C2.5435 10.775 2.72131 10.7065 2.94559 10.6182C3.39422 10.4414 4.02837 10.1854 4.7691 9.86867C6.25269 9.23431 8.15486 8.36025 9.84883 7.39539C11.2507 6.59691 12.7886 5.52773 13.9817 4.6531C14.4412 4.31623 14.8481 4.00937 15.1744 3.75961L13.8115 3.45237C13.5751 3.42642 13.4045 3.21372 13.4304 2.9773C13.4564 2.74088 13.6691 2.57026 13.9055 2.59622L16.3227 3.0192Z" fill="#22272F"/>
<path id="Rectangle 23000" d="M3.0127 13.7229C3.0127 13.485 3.2055 13.2922 3.44335 13.2922H4.75282C4.99066 13.2922 5.18347 13.485 5.18347 13.7229V17.0749C5.18347 17.3127 4.99066 17.5055 4.75282 17.5055H3.44335C3.2055 17.5055 3.0127 17.3127 3.0127 17.0749V13.7229Z" fill="#22272F"/>
<path id="Rectangle 23001" d="M7.198 11.3546C7.198 11.1168 7.39081 10.924 7.62865 10.924H8.93812C9.17597 10.924 9.36878 11.1168 9.36878 11.3546V17.075C9.36878 17.3129 9.17597 17.5057 8.93812 17.5057H7.62865C7.39081 17.5057 7.198 17.3129 7.198 17.075V11.3546Z" fill="#22272F"/>
<path id="Rectangle 23002" d="M11.3821 9.03832C11.3821 8.80048 11.5749 8.60767 11.8127 8.60767H13.1222C13.36 8.60767 13.5529 8.80048 13.5529 9.03832V17.0746C13.5529 17.3125 13.36 17.5053 13.1222 17.5053H11.8127C11.5749 17.5053 11.3821 17.3125 11.3821 17.0746V9.03832Z" fill="#22272F"/>
<path id="Rectangle 23003" d="M15.5671 7.05626C15.5671 6.81842 15.7599 6.62561 15.9978 6.62561H17.3073C17.5451 6.62561 17.7379 6.81842 17.7379 7.05626V17.0741C17.7379 17.3119 17.5451 17.5047 17.3073 17.5047H15.9978C15.7599 17.5047 15.5671 17.3119 15.5671 17.0741V7.05626Z" fill="#22272F"/>
</g>
</svg>
