<svg width="22" height="20" viewBox="0 0 22 20" fill="none" xmlns="http://www.w3.org/2000/svg">
<g id="Group 1000005402">
<path id="Vector 930" d="M3.18837 3.97923L1.00553 3.16079C0.944732 3.13799 0.921442 3.06421 0.958136 3.01064L1.99037 1.50375C2.01649 1.46561 2.06536 1.45035 2.10855 1.46685L4.38063 2.33474M3.18837 3.97923L4.38063 2.33474M3.18837 3.97923H18.4821M3.18837 3.97923L1.84579 6.0029C1.80169 6.06937 1.84935 6.15818 1.92912 6.15818H3.18837M4.38063 2.33474H17.2077M17.2077 2.33474L19.4361 1.46747C19.4793 1.45063 19.5285 1.46579 19.5548 1.50407L20.5901 3.01259C20.6265 3.06553 20.6042 3.1385 20.5445 3.16215L18.4821 3.97923M17.2077 2.33474L18.4821 3.97923M18.4821 3.97923L19.7437 6.00533C19.7851 6.07194 19.7372 6.15818 19.6588 6.15818H18.4821M3.18837 6.15818V18.8852C3.18837 18.9404 3.23315 18.9852 3.28838 18.9852H18.3821C18.4374 18.9852 18.4821 18.9404 18.4821 18.8852V6.15818M3.18837 6.15818H18.4821M8.94409 12.5717L10.1018 13.6096C10.1213 13.6271 10.1509 13.6266 10.1698 13.6084L12.3564 11.5028" stroke="#22272F" stroke-linecap="round"/>
<circle id="Ellipse 3231" cx="10.7734" cy="12.4592" r="3.36157" stroke="#22272F"/>
</g>
</svg>
