<svg xmlns="http://www.w3.org/2000/svg" width="38" height="39" viewBox="0 0 38 39" fill="none">
  <path d="M27.7827 37.2524C17.3935 37.2524 1.17944 37.2524 1.17944 37.2524V1.25134H16.5052C17.5916 1.24014 18.9585 1.3575 20.443 1.66621M33.1322 13.2517V22.2158M33.1322 13.2517C31.5341 5.79354 25.3468 2.68595 20.443 1.66621M33.1322 13.2517H20.443V1.66621M29.3731 34.7945C30.8411 35.7544 33.1322 37.2524 33.1322 37.2524M33.1322 37.2524L37.1805 34.7945M33.1322 37.2524V26.1196M7.77327 21.5334V27.9474L14.4811 32.7092M14.4811 32.7092V25.1291M14.4811 32.7092L21.3786 27.9474V21.5334M14.7527 22.5593L21.3045 18.9315C21.3376 18.9132 21.3386 18.866 21.3063 18.8463L15.0056 15.0018C14.9903 14.9925 14.9713 14.9921 14.9557 15.0009L8.13324 18.8471C8.09963 18.866 8.09985 18.9145 8.13363 18.9331L14.7051 22.5593C14.7199 22.5675 14.7379 22.5675 14.7527 22.5593Z" stroke="#47A0FB" stroke-width="2.36083"/>
</svg>