<svg xmlns="http://www.w3.org/2000/svg" width="39" height="40" viewBox="0 0 39 40" fill="none">
  <path fill-rule="evenodd" clip-rule="evenodd" d="M0.0473747 37.8106L0.0473762 1.83154C0.0473763 1.3553 0.43344 0.969238 0.909674 0.969238L-nan -nanL0.909674 0.969238C1.38591 0.969238 1.77197 1.3553 1.77197 1.83154L1.77197 37.8106L0.0473747 37.8106Z" fill="#47A0FB"/>
  <path fill-rule="evenodd" clip-rule="evenodd" d="M0.0465355 37.8092L38.1378 37.8092C38.6141 37.8092 39.0001 38.1953 39.0001 38.6715L-nan -nanL39.0001 38.6715C39.0001 39.1477 38.6141 39.5338 38.1378 39.5338L0.0465355 39.5338V37.8092Z" fill="#47A0FB"/>
  <path fill-rule="evenodd" clip-rule="evenodd" d="M32.6364 5.84935C33.1098 5.90132 33.4514 6.32721 33.3994 6.8006L32.5525 11.6406C32.5005 12.114 32.0746 12.4556 31.6012 12.4036C31.1278 12.3517 30.7862 11.9258 30.8382 11.4524L31.4622 8.6424C30.7883 9.15901 29.9361 9.80257 28.9686 10.5118C26.5616 12.2763 23.42 14.4627 20.5272 16.1104C17.0542 18.0886 13.1783 19.868 10.1805 21.1499C8.67947 21.7917 7.39409 22.3107 6.48329 22.6694C6.02781 22.8488 5.66581 22.9883 5.41712 23.0831C5.29277 23.1305 5.19673 23.1667 5.13149 23.1912L5.05703 23.2191L5.03122 23.2287C5.03122 23.2287 5.0306 23.2289 4.73118 22.4203L4.43174 21.6116L4.45454 21.6031L4.52524 21.5767C4.58792 21.5531 4.6813 21.5179 4.8029 21.4716C5.04611 21.3789 5.40214 21.2417 5.85122 21.0648C6.74951 20.711 8.01929 20.1983 9.50247 19.5641C12.4731 18.2939 16.2818 16.5438 19.6737 14.6118C22.4806 13.013 25.5599 10.8722 27.9489 9.12092C28.8691 8.4464 29.6838 7.83197 30.3371 7.33187L27.6082 6.71669C27.1348 6.66472 26.7931 6.23883 26.8451 5.76544C26.8971 5.29205 27.323 4.95042 27.7964 5.00239L32.6364 5.84935Z" fill="#47A0FB"/>
  <path d="M5.98608 27.2815C5.98608 26.8053 6.37215 26.4192 6.84838 26.4192H9.47036C9.9466 26.4192 10.3327 26.8053 10.3327 27.2815V33.9932C10.3327 34.4694 9.9466 34.8555 9.47036 34.8555H6.84838C6.37215 34.8555 5.98608 34.4694 5.98608 33.9932V27.2815Z" fill="#47A0FB"/>
  <path d="M14.366 22.5395C14.366 22.0633 14.752 21.6772 15.2283 21.6772H17.8502C18.3265 21.6772 18.7125 22.0633 18.7125 22.5395V33.9936C18.7125 34.4699 18.3265 34.8559 17.8502 34.8559H15.2283C14.752 34.8559 14.366 34.4699 14.366 33.9936V22.5395Z" fill="#47A0FB"/>
  <path d="M22.744 17.9016C22.744 17.4254 23.1301 17.0393 23.6063 17.0393H26.2283C26.7045 17.0393 27.0906 17.4254 27.0906 17.9016V33.9928C27.0906 34.469 26.7045 34.8551 26.2283 34.8551H23.6063C23.1301 34.8551 22.744 34.469 22.744 33.9928V17.9016Z" fill="#47A0FB"/>
  <path d="M31.1238 13.9329C31.1238 13.4566 31.5098 13.0706 31.9861 13.0706H34.6081C35.0843 13.0706 35.4704 13.4566 35.4704 13.9329V33.9917C35.4704 34.4679 35.0843 34.854 34.6081 34.854H31.9861C31.5098 34.854 31.1238 34.4679 31.1238 33.9917V13.9329Z" fill="#47A0FB"/>
</svg>