<svg xmlns="http://www.w3.org/2000/svg" width="38" height="40" viewBox="0 0 38 40" fill="none">
  <path d="M3.87251 14.1039C1.87134 12.8532 1.68373 11.2898 1.84007 10.6644L4.96688 2.06555H9.18812M3.87251 14.1039C4.91479 14.2082 7.03061 13.8851 7.15568 11.7588M3.87251 14.1039V30.0366M7.15568 11.7588L9.18812 2.06555M7.15568 11.7588C7.84757 13.5901 9.44229 14.0853 10.1532 14.1039C12.2388 14.1039 13.1465 12.5405 13.3396 11.7588M9.18812 2.06555H13.9189M13.9189 2.06555L13.3396 11.7588M13.9189 2.06555H19.0365M13.3396 11.7588C13.2587 13.1126 15.2371 13.8863 16.2363 14.1039C18.0903 13.64 18.8756 12.6879 19.0365 12.2699M19.0365 2.06555V12.2699M19.0365 2.06555H24.1541M19.0365 12.2699C19.809 13.9693 21.6114 14.2007 22.4161 14.1039C24.1155 14.1039 24.6691 12.8812 24.7335 12.2699M24.1541 2.06555L24.7335 12.2699M24.1541 2.06555H29.1752M24.7335 12.2699C25.8149 14.1238 27.5659 14.265 28.3061 14.1039C29.6193 13.7173 30.527 12.7201 30.8167 12.2699M29.1752 2.06555L30.8167 12.2699M29.1752 2.06555H32.8444L36.4171 11.7588C36.4492 12.3472 36.0694 13.64 34.2928 14.1039M30.8167 12.2699C31.7436 14.1238 33.5203 14.265 34.2928 14.1039M34.2928 14.1039V30.0366M3.87251 30.0366V36.4095C3.7774 36.9245 3.99274 38.051 5.61492 38.4372H32.8444C33.3272 38.2763 34.2928 37.6454 34.2928 36.4095V30.0366M3.87251 30.0366H10.1532M34.2928 30.0366H27.8234M10.1532 30.0366C10.121 28.8457 11.2926 26.5412 16.2363 26.8502V24.7259C15.7536 24.0822 14.788 22.2969 14.788 20.6748C14.788 17.7822 16.2357 16.2288 19.0365 16.2288C21.6436 16.2288 23.188 17.5485 23.188 20.7744C23.188 21.7447 23.1113 23.0265 21.6436 24.7259V26.8502C23.8001 26.5927 28.0551 26.8695 27.8234 30.0366M10.1532 30.0366H27.8234" stroke="#47A0FB" stroke-width="2.31421"/>
</svg>