<svg xmlns="http://www.w3.org/2000/svg" width="41" height="43" viewBox="0 0 41 43" fill="none">
  <path d="M1.27475 11.457L17.9272 1.97449L23.8016 5.3086M1.27475 11.457L1 31.1747L17.9272 41.0051M1.27475 11.457L7.07827 14.8667M34.6345 11.457L17.9272 21.2406M34.6345 11.457V24.2509M34.6345 11.457L28.5363 7.99587M17.9272 21.2406V41.0051M17.9272 21.2406L12.099 17.8164M17.9272 41.0051L24.2895 37.2594M34.6345 24.2509C36.6916 25.0537 40.4706 27.6835 39.8775 33.7929C39.6028 36.6224 36.7041 41.7744 29.7804 41.0051C28.1928 40.5551 25.849 39.3557 24.2895 37.2594M34.6345 24.2509C27.5278 21.6178 23.8581 27.0423 22.9116 30.0837C22.2379 33.1524 22.9925 35.5161 24.2895 37.2594M27.2389 31.1747L29.4369 34.6171L35.6189 29.5342M7.42358 15.0695L23.8016 5.3086M7.42358 15.0695L7.07827 14.8667M7.42358 15.0695L11.7153 17.591M23.8016 5.3086L28.5363 7.99587M28.5363 7.99587L12.099 17.8164M12.099 17.8164L11.7153 17.591M7.07827 14.8667V23.3523L11.7153 26.0311V17.591" stroke="#47A0FB" stroke-width="1.98193"/>
</svg>