<svg width="20" height="21" viewBox="0 0 20 21" fill="none" xmlns="http://www.w3.org/2000/svg">
<path id="Vector 916" d="M1.8734 7.02431C0.835722 6.37577 0.738439 5.56507 0.819507 5.2408L2.44087 0.781982H4.62974M1.8734 7.02431C2.41386 7.07836 3.51099 6.91082 3.57584 5.80829M1.8734 7.02431V15.286M3.57584 5.80829L4.62974 0.781982M3.57584 5.80829C3.93461 6.75789 4.76153 7.01464 5.13015 7.02431C6.21164 7.02431 6.68228 6.21363 6.78242 5.80829M4.62974 0.781982H7.08284M7.08284 0.781982L6.78242 5.80829M7.08284 0.781982H9.73649M6.78242 5.80829C6.74047 6.51026 7.76632 6.91146 8.28449 7.02431C9.24582 6.78376 9.65304 6.29006 9.73649 6.07328M9.73649 0.781982V6.07328M9.73649 0.781982H12.3901M9.73649 6.07328C10.137 6.9545 11.0717 7.07448 11.4889 7.02431C12.3701 7.02431 12.6572 6.39029 12.6906 6.07328M12.3901 0.781982L12.6906 6.07328M12.3901 0.781982H14.9937M12.6906 6.07328C13.2513 7.03461 14.1593 7.10786 14.5431 7.02431C15.2241 6.82381 15.6947 6.30675 15.8449 6.07328M14.9937 0.781982L15.8449 6.07328M14.9937 0.781982H16.8964L18.7489 5.80829C18.7656 6.1134 18.5687 6.78376 17.6474 7.02431M15.8449 6.07328C16.3256 7.03461 17.2468 7.10786 17.6474 7.02431M17.6474 7.02431V15.286M1.8734 15.286V18.5905C1.82409 18.8576 1.93575 19.4417 2.7769 19.642H16.8964C17.1467 19.5585 17.6474 19.2314 17.6474 18.5905V15.286M1.8734 15.286H5.13015M17.6474 15.286H14.2928M5.13015 15.286C5.11346 14.6685 5.72096 13.4735 8.28449 13.6337V12.5322C8.03415 12.1984 7.53346 11.2727 7.53346 10.4315C7.53346 8.93161 8.28416 8.12611 9.73649 8.12611C11.0884 8.12611 11.8892 8.81042 11.8892 10.4832C11.8892 10.9863 11.8494 11.651 11.0884 12.5322V13.6337C12.2066 13.5002 14.4129 13.6437 14.2928 15.286M5.13015 15.286H14.2928" stroke="#22272F" stroke-width="1.2"/>
</svg>
